<svg width="1207" height="1215" viewBox="0 0 1207 1215" fill="none" xmlns="http://www.w3.org/2000/svg">
<path d="M39.7274 634.947C39.7274 634.947 39.9421 634.223 39.217 634.008C39.217 634.008 39.0024 634.732 39.7274 634.947Z" fill="black"/>
<path d="M1185.38 328.105C1184.44 328.614 1182.05 328.693 1181.11 329.202C1175.79 341.802 1170.86 358.451 1166.78 372.206C1159.77 398.481 1148.2 424.19 1133.44 447.377C1121.63 465.926 1108.07 482.382 1093.57 499.347C1082.11 514.062 1070.22 530.224 1053.01 537.721C1048.31 540.265 1030.08 545.885 1025.86 541.484C1020.41 535.929 1037.94 516.713 1042.56 511.782C1067.44 483.722 1091.04 460.005 1107.36 426.255C1107.79 424.807 1108.73 424.298 1109.16 422.85C1115.63 409.017 1123.04 394.675 1129 379.903C1133.16 368.536 1138.74 349.715 1142.17 338.132C1145.82 325.826 1144.34 317.512 1140.1 305.227C1137.17 296.483 1133.52 287.524 1130.59 278.779C1126.64 268.157 1121.96 257.32 1117.07 247.207C1115.03 243.452 1113.21 238.972 1110.44 235.001C1097.68 211.528 1080.6 194.649 1055.87 184.952C1040.34 178.774 1030.81 165.708 1016.87 156.849C1013.92 161.486 1013.95 169.37 1014.49 178.193C1015.53 187.955 1017.52 197.208 1018.2 202.92C1019.84 216.008 1022.2 229.311 1020.73 242.262C1019.12 258.324 1014.18 274.974 1010.91 291.33C1001.01 338.01 986.545 384.125 971.356 430.025C964.835 449.355 959.739 482.497 932.86 480.038C926.869 465.661 928.047 451.046 928.501 436.217C928.954 421.388 934.913 406.616 938.992 392.862C945.217 371.869 952.168 351.091 959.844 330.528C961.561 324.736 964.003 319.16 965.721 313.369C987.002 249.587 1000.09 184.164 1005.72 117.314C1006.28 112.755 1006.33 107.258 1006.9 102.7C1008.48 78.7536 1004.85 56.413 990.8 37.2834C986.798 32.1588 981.642 28.2669 977.64 23.1423C967.461 12.2479 959.161 0.33582 947.102 -9.54076C925.966 -26.0471 899.864 -33.7878 877.788 -49.7853C863.554 -60.3069 846.582 -66.9152 829.181 -72.0757C816.855 -75.731 802.569 -80.7553 788.821 -76.9566C788.716 -65.9619 795.351 -53.756 797.635 -42.8401C800.726 -29.3225 803.817 -15.8049 806.907 -2.28736C814.057 32.123 824.751 65.2217 833.78 98.6143C848.184 156.44 883.424 207.844 874.736 269.061C870.07 300.755 852.353 328.578 846.022 360.566C843.956 370.192 845.224 400.495 831.906 402.846C821.917 404.609 822.371 389.78 821.403 382.405C820.058 370.98 821.318 358.753 818.523 346.898C816.023 336.706 814.678 325.281 814.569 315.01C816.173 277.683 816.971 237.754 812.855 201.093C810.299 175.133 806.293 148.743 802.072 123.076C796.372 89.0962 793.84 49.7546 785.536 16.5771C778.415 -9.94923 769.467 -40.9551 755.043 -64.1342C739.679 -86.8045 713.386 -107.203 686.264 -116.821C683.363 -117.681 681.188 -118.326 679.013 -118.971C633.845 -131.579 581.454 -138.452 537.125 -119.308C537.125 -119.308 537.125 -119.308 536.4 -119.523C522.948 -114.062 520.21 -110.148 526.63 -97.2186C535.092 -80.533 545.567 -67.9758 558.002 -54.0497C578.871 -31.3221 599.525 -7.87061 617.36 17.1075C641.024 51.6899 668.232 84.9606 687.197 122.087C699.017 146.069 706.138 172.596 707.754 199.065C709.881 226.472 700.917 251.379 701.083 277.418C701.221 295.573 705.79 317.404 699.698 335.287C697.981 341.078 694.599 347.163 687.429 347.4C681.924 347.342 681.843 344.956 679.292 340.261C669.89 324.084 664.891 303.7 659.974 285.703C654.465 264.38 649.466 243.997 643.957 222.674C633.154 179.304 610.564 141.102 596.216 99.0445C585.899 69.9953 570.884 43.4905 562.446 13.4235C561.13 9.88288 560.028 5.61831 559.436 2.29267C551.161 -23.0008 538.482 -44.0871 521.239 -65.7396C501.739 -90.4239 476.897 -110.392 445.075 -117.466C430.87 -120.104 416.235 -121.294 400.956 -120.312C378.508 -119.093 356.651 -114.549 337.265 -107.697C327.572 -104.271 320.912 -103.096 327.896 -94.7242C333.858 -88.2306 339.606 -81.0131 345.569 -74.5195C370.869 -48.1151 394.423 -23.8035 409.467 10.5853C427.278 48.9449 443.934 88.5372 462.47 127.112C483.047 169.442 505.289 211.478 515.019 258.467C517.895 272.709 523.161 286.872 522.708 301.701C521.691 321.088 519.01 340.77 517.993 360.158C517.11 376.435 504.736 399.542 488.084 381.215C470.921 361.949 466.7 336.283 460.385 312.359C456.784 297.902 453.908 283.661 451.032 269.419C445.79 241.875 444.818 213.234 437.187 185.769C430.28 158.519 422.649 131.054 416.682 103.295C411.602 80.5241 408.107 55.073 397.603 34.6317C385.783 10.6499 371.788 -13.9771 354.33 -34.9057C343.855 -47.4629 335.26 -61.0378 322.476 -71.1294C313.399 -77.7592 301.85 -86.6968 290.545 -88.4743C281.63 -90.3306 271.937 -86.9047 263.184 -83.9875C243.072 -77.3506 221.163 -67.3092 203.093 -56.9165C191.602 -50.086 179.6 -44.1945 166.363 -39.4569C155.73 -35.522 140.103 -30.7056 131.511 -23.015C113.604 -7.84892 152.003 -4.33692 162.154 -1.32665C186.591 6.70793 209.579 14.3125 228.191 34.0083C252.256 59.2588 270.763 89.9493 286.881 120.719C300.957 147.732 319.302 173.649 326.504 202.562L343.541 267.47C346.336 279.324 355.928 308.159 340.812 313.914C331.119 317.34 318.469 304.138 312.935 296.196C302.89 282.191 300.873 265.054 296.976 248.935C292.273 230.214 288.295 211.708 281.927 193.281C275.56 174.853 269.917 156.641 263.55 138.214C259.519 125.205 254.549 112.706 248.639 100.715C241.413 85.183 231.152 71.9019 218.798 60.3625C203.462 45.5763 186.033 32.5318 168.174 20.9351C156.921 13.6602 147.333 6.09152 134.497 1.49727C120.935 -3.31201 110.813 1.5618 99.6172 10.0551C89.3611 18.0395 80.1259 27.9018 72.5554 37.4702C66.3539 45.0819 57.4954 58.9936 58.3299 69.4794C63.9683 66.4262 72.5353 72.117 78.1211 74.5611C95.3888 82.8322 106.24 99.4389 116.582 115.107C131.946 137.777 146.585 160.232 163.828 181.885C170.597 190.98 231.219 271.175 195.505 269.247C180.655 268.781 167.333 249.867 159.328 239.618C144.26 218.61 132.226 195.352 113.398 176.38C101.984 164.332 89.119 151.854 76.5499 141.038C66.9621 133.469 59.4969 132.043 50.4763 141.181C40.5159 150.829 32.1151 171.177 32.816 184.773C33.2737 191.209 36.8464 197.782 41.0631 202.183C44.0443 205.429 51.1613 210.69 50.3836 215.973C48.3989 227.985 21.1708 229.361 12.9279 233.217C2.37612 239.539 -2.64247 253.802 1.38796 266.81C9.23413 293.552 38.9373 315.749 65.335 325.153C87.3825 333.266 110.046 331.324 132.227 336.326C141.142 338.183 166.734 344.984 150.114 355.807C138.623 362.638 121.221 357.477 108.976 356.209C95.7916 355.449 82.5259 352.302 68.6162 351.328C54.7065 350.353 40.582 350.102 28.175 344.06C15.043 337.803 9.93916 328.414 1.21007 317.949C3.52308 336.749 3.15053 353.965 8.36377 373.625C13.3623 394.009 24.3234 420.887 42.6929 433.422C52.4954 440.267 66.7009 442.905 79.6709 444.388C87.3508 445.091 95.0307 445.793 101.046 446.789C135.391 450.674 169.197 445.736 203.218 440.073C211.542 438.604 220.806 436.626 229.855 435.372C251.497 431.552 274.16 429.609 294.595 432.519C317.931 436.289 314.605 458.142 298.281 470.628C281.233 482.898 252.554 483.844 232.792 486.647C207.82 491.055 182.767 493.076 158.358 492.925C124.39 493.09 90.3689 498.752 57.1783 493.635C44.4229 491.427 35.4265 487.184 26.0534 478.892C19.8762 473.122 13.618 464.966 5.85705 461.877C4.56899 466.22 5.02675 472.656 4.46374 477.215C4.6258 481.988 4.57318 487.485 4.73523 492.259C5.62653 518.513 11.5122 543.885 22.3923 568.376C27.5771 580.152 31.1782 594.608 40.847 604.564C43.3179 606.872 45.7888 609.18 49.1994 610.979C59.4312 616.376 72.1865 618.583 82.552 620.87C100.383 624.582 118.428 627.571 137.118 628.388C162.037 629.477 182.739 626.166 207.416 620.095C233.031 613.516 258.943 608.599 283.028 599.203C301.689 592.136 319.329 583.191 338.205 575.4C356.141 568.118 373.352 560.621 392.308 555.217C404.177 552.436 428.772 543.978 437.367 557.553C452.517 580.947 404.376 607.624 389.903 611.208C361.682 618.59 331.258 617.443 302.58 618.39C270.572 619.923 241.412 627.815 211.393 638.601C178.77 650.191 144.239 654.914 110.485 654.355C98.0255 653.811 84.7598 650.664 73.1589 647.224C67.3584 645.504 42.0624 640.365 39.5105 635.67C41.2037 643.26 42.8969 650.851 45.5298 657.932C60.6024 700.205 77.0766 769.671 124.716 784.586C146.978 791.975 176.114 797.465 199.125 791.688C228.071 784.521 258.252 778.508 285.666 768.524C322.773 755.114 358.054 737.224 392.609 719.119C419.647 705.086 447.653 698.427 476.813 690.536C490.346 687.461 522.54 677.319 521.9 700.756C520.802 717.757 499.966 724.179 487.32 732.243C443.744 759.486 396.729 777.046 349.795 796.992C322.676 808.639 294.322 819.132 266.479 830.564C253.966 835.517 241.239 841.193 228.217 845.207C220.403 847.615 210.119 847.716 202.601 851.787C195.808 856.073 193.447 864.036 193.046 873.367C192.645 882.699 195.144 892.891 196.112 900.266C200.171 921.159 208.366 944.066 221.607 960.594C231.572 972.212 246.182 986.783 260.12 995.642C263.316 998.165 267.452 1000.18 271.077 1001.25C287.109 1008.37 308.213 995.728 323.544 989.249C385.595 963.547 438.54 923.331 488.719 879.144C511.244 859.047 535.73 840.319 560.215 821.59C583.547 804.095 595.52 790.319 627.394 791.896C632.899 791.953 635.103 800.483 635.775 806.195C637.367 846.045 576.284 879.123 548.98 899.378C499.283 936.619 439.326 960.579 386.138 993.635C371.613 1002.72 355.585 1016.86 348.472 1032.87C341.359 1048.87 343.429 1060.51 349.501 1077.28C356.89 1097.58 362.236 1114.13 381.546 1126.16C382.781 1127.31 384.231 1127.74 386.192 1129.11C405.501 1141.14 430.611 1154.89 452.415 1155.84C499.864 1158.1 540.454 1106.34 568.079 1074.37C590.872 1048.05 611.704 1020.36 635.221 994.259C642.362 986.138 649.718 977.294 656.349 968.234C661.611 961.131 666.147 953.813 669.959 946.281C677.582 931.215 683.459 914.056 693.043 900.359C700.103 889.852 718.946 852.912 733.581 854.101C749.155 854.782 738.446 877.596 734.205 886.577C716.383 925.395 695.875 962.629 674.856 998.925C661.542 1022.54 653.089 1048.39 641.439 1071.71C629.28 1094.09 616.233 1111.49 600.152 1131.13C586.38 1148.31 572.608 1165.49 556.151 1181.09C547.56 1188.78 527.396 1200.91 524.39 1211.05C548.155 1213.37 572.001 1218.08 595.952 1211.79C633.436 1202.43 671.941 1194.95 701.984 1170.78C748.566 1133.41 762.573 1080.85 777.438 1025.41C781.517 1011.65 785.81 997.176 790.614 983.637C795.633 969.374 801.376 955.326 806.18 941.786C809.482 933.315 812.702 922.456 817.882 912.967C822.634 904.925 828.62 898.037 838.824 895.55C857.566 890.87 857.894 921.682 860.77 935.924C866.145 960.357 868.191 985.378 870.962 1010.61C874.834 1040.12 860.313 1070.46 836.042 1088.47C818.054 1101.25 803.5 1102.44 783.389 1109.08C794.24 1125.69 821.979 1125.25 838.922 1123.97C894.962 1118.54 946.996 1086.72 982.11 1042.79C992.929 1030.25 1002 1015.61 1009.41 1001.27C1014.59 991.779 1017.81 980.92 1021.03 970.062C1022.96 963.546 1024.39 956.092 1025.59 949.362C1030.5 924.828 1039.04 901.37 1037.93 875.84C1037.07 857.47 1036.85 836.928 1030.48 818.501C1026.45 805.492 1018.15 793.58 1016 779.554C1011.48 752.225 980.067 757.084 958.878 746.075C947.196 740.248 894.129 706.397 921.167 692.363C961.871 672.144 982.133 747.459 1022.68 743.732C1042.95 741.868 1064.3 736.385 1084.41 729.748C1087.01 728.945 1089.83 727.419 1093.16 726.831C1106.4 722.093 1119.34 715.693 1132.07 710.016C1141.25 705.651 1151.16 701.502 1160.56 696.413C1163.38 694.886 1165.47 693.144 1168.29 691.618C1179.06 684.572 1192.05 672.674 1199.32 661.443C1202.49 656.082 1203.91 648.628 1205.34 641.174C1205.68 637.34 1205.82 634.229 1205.95 631.118C1206.17 630.394 1206.38 629.671 1205.66 629.455C1205.36 627.793 1206 625.621 1205.71 623.958C1206.67 610.068 1206.7 596.686 1206.72 583.305C1206.5 562.763 1207.95 541.928 1206.28 520.956C1203.94 494.272 1205.14 466.277 1205.4 438.79C1205.21 426.133 1204.81 414.199 1203.89 401.326C1203.81 398.94 1203.73 396.553 1202.92 393.951C1202.55 389.902 1201.96 386.576 1201.36 383.25C1198.54 363.512 1192.68 346.023 1185.38 328.105ZM612.544 650.456C606.261 655.681 600.275 662.569 592.971 665.916C588.487 667.737 578.794 671.162 576.109 669.578C574.74 671.535 568.214 669.6 566.254 668.231C564.293 666.862 563.998 665.199 563.192 662.598C561.794 656.67 561.847 651.173 563.564 645.382C569.308 631.334 581.792 618.497 594.733 612.096C604.856 607.223 624.027 601.095 628.138 616.49C631.873 627.836 622.075 642.257 612.544 650.456ZM590.572 482.49C584.424 484.604 573.009 472.556 568.792 468.155C563.555 461.876 561.351 453.347 559.148 444.818C555.251 428.699 554.684 411.992 562.307 396.926C568.346 384.541 581.154 381.251 590.393 392.654C600.358 404.273 600.362 425.538 602.299 440.288C603.348 450.05 601.282 459.676 598.491 469.087C598.143 472.921 597.661 479.866 590.572 482.49ZM723.401 702.233C715.401 713.249 703.909 720.079 693.815 732.837C684.418 737.926 673.06 741.646 669.97 728.128C667.604 714.826 682.478 701.91 690.048 692.342C697.404 683.497 710.88 664.654 724.871 668.016C743.427 671.944 730.461 691.725 723.401 702.233ZM682.893 495.692C679.669 485.285 681.52 476.383 683.076 465.818C684.846 454.53 689.006 443.162 692.951 432.519C695.608 426.219 697.325 420.428 702.453 416.435C707.367 413.167 711.126 411.132 716.497 414.3C722.593 417.683 725.145 422.377 727.778 429.458C731.217 439.142 732.991 449.118 735.49 459.31C737.99 469.502 739.039 479.264 735.308 489.184C731.792 498.38 726.182 509.317 718.745 515.775C714.772 518.534 709.777 519.416 704.139 522.469C694.337 515.624 685.903 506.823 682.893 495.692ZM806.11 721.248C807.078 728.623 800.233 738.406 796.85 744.491C793.468 750.576 791.159 753.042 786.756 757.249C782.487 758.346 780.903 761.026 779.291 755.823C776.739 751.128 778.027 746.785 779.315 742.442C781.329 738.313 782.831 733.246 784.844 729.117C787.583 725.204 790.831 722.23 794.08 719.255C798.483 715.048 804.121 711.995 806.11 721.248ZM822.372 530.754C818.427 541.398 817.005 548.852 803.982 552.866C797.323 554.041 793.159 544.143 793.212 538.646C793.989 533.363 795.707 527.572 797.209 522.505C799.786 513.818 802.147 505.855 805.448 497.383C806.951 492.316 809.098 485.077 812.051 480.44C817.312 473.337 825.073 476.426 827.491 484.231C832.247 497.455 826.961 517.939 822.372 530.754ZM903.497 552.45C904.68 559.101 902.614 568.727 899.957 575.027C897.729 579.879 891.743 586.767 888.494 589.741C876.812 583.914 881.75 567.265 885.991 558.284C888.004 554.156 890.151 546.917 894.849 544.372C899.037 540.889 902.61 547.461 903.497 552.45Z" fill="black"/>
<path d="M1057.03 367.225C1060.47 355.643 1062.96 344.569 1065.67 332.772C1062.96 344.569 1060.25 356.366 1057.03 367.225Z" fill="black"/>
<path d="M981.012 636.867C1012.53 621.013 1040.48 598.587 1062.04 571.114C1036.35 596.573 1005.63 615.028 971.343 626.912C992.313 617.379 1010.01 602.937 1024.72 585.248C1003.48 601.002 979.181 611.122 953.269 616.039C975.365 597.39 993.674 572.892 1004.95 545.52C992.677 557.632 978.877 566.929 964.137 576.733C1002.05 544.66 1035.15 504.859 1061.94 462.4C1032.83 486.059 1000.96 505.748 966.838 522.405C997.258 502.286 1019.16 470.979 1033.82 437.522C1043.59 415.218 1050.67 391.329 1056.82 367.949C1043.08 414.279 1021.58 457.519 990.785 494.854C1008.37 470.141 1019.13 441.83 1026.27 412.444C1033.4 383.058 1036.49 354.044 1040.72 323.798C1029.48 359.054 1026 397.4 1009.17 430.212C995.208 456 974.644 477.466 952.843 497.778C966.749 477.487 976.008 454.244 978.528 429.789C973.643 440.941 967.522 450.94 960.677 460.723C958.02 467.023 953.913 472.893 948.999 476.161C940.489 486.239 931.468 495.377 921.212 503.362C925.453 494.381 928.754 485.909 931.545 476.498C929.933 471.295 928.536 465.367 928.588 459.87C923.837 467.912 917.85 474.8 911.649 482.411C927.053 435.788 935.931 387.229 940.245 338.104C936.523 390.555 916.635 438.999 886.515 482.046C910.753 434.892 921.86 381.481 921.231 327.74C912.568 375.575 898.614 422.629 881.249 467.883C899.845 402.517 909.015 334.356 904.571 266.882C899.537 337.058 879.653 406.767 844.166 467.912C863.167 414.479 872.017 358.037 869.133 301.264C861.947 357.413 847.511 411.412 822.199 462.185C830.386 442.561 834.007 422.371 834.727 401.32C833.788 401.829 832.633 403.062 831.183 402.632C830.243 403.141 829.518 402.926 828.793 402.711C824.528 425.073 818.088 446.79 808.022 467.432C820.688 424.722 822.989 379.725 813.85 336.062C811.55 381.058 803.234 425.058 788.179 467.847C801.326 418.192 801.934 365.605 790.673 315.8C788.883 361.735 779.413 406.968 764.142 450.481C781.478 397.342 785.763 340.333 776.945 284.951C775.317 335.66 768.909 386.527 758.151 436.103C766.009 385.667 761.407 334.686 744.937 286.485C744.03 316.144 743.338 345.078 743.156 374.952C742.207 332.93 734.815 291.359 719.609 252.197C723.7 302.239 722.287 352.224 713.704 402.446C718.289 368.365 714.254 334.091 703.346 301.716C703.966 312.926 703.86 323.92 700.64 334.779C700.426 335.503 699.996 336.95 699.782 337.674C696.027 360.975 691.547 384.061 685.617 406.717C689.963 386.742 691.195 366.63 689.311 346.383L688.586 346.168C683.081 346.11 683 343.724 680.233 339.753C678.115 354.876 675.997 369.999 671.703 384.477C674.518 361.685 674.218 338.757 669.649 316.925C666.21 307.242 663.711 297.05 660.997 287.582C658.988 312.976 657.408 336.922 654.674 362.101C656.841 320.215 651.328 277.626 637.062 237.955C638.492 273.032 637.961 306.74 635.551 341.466C636.75 292.205 625.999 243.338 604.616 198.406C611.284 239.761 613.896 281.49 610.79 323.884C604.657 270.086 591.14 217.249 569.38 168.267C579.243 212.146 582.448 257.2 579.422 301.981C578.822 256.124 567.723 211.092 546.717 170.21C552.497 206.577 558.788 243.883 559.789 280.407C560.575 317.656 555.856 354.847 541.712 389.243C547.961 354.869 544.142 319.871 533.662 286.048C539.848 334.349 530.54 384.355 508.315 427.381C513.925 416.443 516.124 403.707 514.994 391.558C509.25 405.606 500.311 417.131 489.411 427.288C493.356 416.644 494.482 407.527 492.922 396.826C492.011 405.219 487.474 412.537 480.467 417.547C483.472 407.413 482.853 396.203 481.078 386.226C479.657 393.68 476.06 400.489 471.738 407.083C474.448 395.285 473.317 383.137 468.858 371.576C466.873 383.588 463.653 394.447 458.982 404.875C461.635 377.31 459.509 349.902 454.267 322.358C450.966 330.83 445.194 336.994 438.482 343.666C449.803 289.531 446.919 232.759 431.226 179.276C437.789 231.627 434.066 284.077 419.764 334.965C430.789 279.168 425.22 220.811 402.868 168.504C417.568 227.993 415.835 289.696 399.896 348.762C408.613 295.43 401.244 240.478 376.88 192.299C383.895 229.82 385.702 268.947 381.279 307.801C379.323 327.698 374.977 347.673 360.399 362.251C370.918 326.78 375.637 289.589 372.461 252.419C371.473 279.691 365.919 306.396 356.741 332.027C352.366 344.118 346.542 355.779 335.05 362.61C341.09 350.224 344.739 337.918 345.488 324.752C341.41 338.506 332.47 350.031 320.039 357.37C322.534 346.297 323.364 335.517 322.744 324.307C321.189 334.872 316.008 344.362 308.867 352.482C312.221 338.513 311.52 324.917 307.704 311.184C307.895 323.842 304.97 336.363 297.91 346.87C298.331 302.891 288.468 259.013 270.147 219.715C279.123 258.605 281.655 297.946 279.192 338.169C273.922 302.741 261.053 268.997 241.606 238.816C252.085 272.638 257.785 306.618 260.88 341.402C248.55 316.481 236.005 292.284 221.795 268.381C230.071 293.674 238.775 317.52 248.205 341.581C229.808 321.161 211.92 301.68 193.522 281.26C209.826 303.422 225.915 326.307 242.433 347.745C216.975 337.832 192.672 326.687 169.012 313.37C189.934 330.6 213.593 343.917 239.266 353.106C212.682 352.31 187.252 350.282 160.802 346.376C190.314 355.915 218.806 363.577 248.963 370.945C216.016 372.988 183.712 372.859 151.113 371.067C187.499 378.708 224.234 382.513 261.184 385.595C226.171 397.264 188.31 402.575 151.146 400.217C195.265 403.062 238.497 400.919 282.077 394.942C254.071 401.6 227.73 407.965 199.939 413.899C235.572 413.44 271.124 410.595 306.085 404.424C278.375 412.745 251.819 419.834 223.303 425.553C259.742 427.696 296.1 427.453 333.317 424.313C328.404 427.582 323.705 430.126 318.067 433.179C326.176 432.434 333.56 431.473 342.394 430.943C332.353 438.203 321.801 444.525 311.679 449.399C311.25 450.847 310.82 452.294 310.391 453.742C323.924 450.668 336.946 446.654 350.479 443.579C312.542 467.769 270.817 486.11 226.082 493.32C271.757 485.601 317.135 476.219 362.137 462.787C320.198 481.853 277.156 496.653 231.992 505.311C275.062 498.395 317.111 489.601 359.294 477.696C310.318 493.887 260.026 506.537 208.928 516.586C265.774 513.754 322.887 504.702 376.776 485.243C320.955 511.217 262.501 530.11 202.273 539.026C270.801 542.022 338.924 533.085 404.037 513.016C343.703 532.927 281.972 546.911 219.059 554.243C271.502 555.619 325.152 550.265 375.873 536.167C338.9 546.466 301.63 555.103 263.555 561.138C327.57 558.07 394.806 544.144 455.917 518.951C444.669 532.941 428.478 542.316 410.891 545.764C436.454 544.681 462.661 541.427 487.042 533.694C475.55 540.524 464.273 546.631 452.567 554.185C469.645 549.799 485.567 546.645 501.705 542.768C489.274 550.107 478.293 557.876 465.861 565.216C478.75 564.313 490.189 562.98 502.272 559.475C472.282 578.146 443.15 593.921 410.903 609.56C443.231 596.308 474.404 584.288 506.517 571.76C464.391 599.433 419.203 621.472 371.678 638.093C420.386 628.123 467.053 614.398 513.047 594.96C466.356 622.067 416.522 641.154 363.84 653.883C422.107 643.598 478.897 624.999 531.307 597.225C475.381 634.194 413.115 660.62 346.524 672.375C422.031 662.476 495.549 643.325 564.822 611.889C516.924 645.726 461.532 670.253 403.56 682.201C457.291 679.234 510.35 670.554 560.99 654.069C561.124 650.959 561.257 647.848 562.841 645.167C568.585 631.119 581.069 618.283 594.01 611.882C604.133 607.008 623.304 600.88 627.416 616.276C630.721 629.07 620.923 643.49 612.331 651.181C606.049 656.406 600.062 663.294 592.759 666.641C588.275 668.461 578.582 671.887 575.896 670.303C574.742 671.536 568.002 670.325 566.041 668.956C564.081 667.587 563.785 665.924 562.979 663.322C562.173 660.72 562.092 658.334 562.226 655.223C528.529 670.432 494.241 682.316 457.615 688.781C467.9 688.68 478.909 688.795 489.194 688.695C496.793 687.01 505.842 685.756 512.582 686.967C557.908 683.083 602.991 672.038 645.226 654.635C606.94 682.66 565.592 705.05 520.671 720.869C550.637 715.579 579.797 707.688 607.856 695.532C565.758 731.089 517.107 756.827 464.076 773.391C512.489 761.758 559.289 744.922 603.028 722.453C567.346 749.674 530.348 773.355 490.584 793.065C552.071 771.922 610.416 742.758 663.952 705.867C635.254 741.461 599.787 767.958 557.633 787.747C622.856 777.949 684.907 752.247 738.658 714.633C714.577 745.295 685.259 769.678 651.214 788.722C679.139 779.677 704.807 767.6 729.884 752.197C712.759 783.346 686.341 808.59 654.309 823.505C687.013 814.302 717.595 798.957 745.41 779.641C715.825 810.245 681.513 835.51 643.628 854.203C684.279 839.481 723.829 820.495 759.592 795.66C723.857 828.379 686.082 857.342 645.621 884.721C701.98 867.57 752.187 831.267 787.435 784.228C782.555 816.646 774.263 847.265 760.682 877.102C794.885 841.567 816.304 795.939 824.457 747.166C832.008 772.244 836.658 796.462 837.549 822.716C845.144 799.767 847.234 776.759 844.759 753.186C858.73 791.194 865.102 830.887 864.089 871.54C875.524 848.942 879.708 824.193 876.212 798.742C897.033 848.232 906.495 901.442 903.283 954.832C916.03 914.508 918.493 874.285 909.435 833.009C919.485 868.279 924.03 903.492 923.366 940.311C936.623 900.926 942.63 859.392 940.017 817.663C946.632 864.516 949.192 911.742 941.683 958.344C959.372 922.636 967.635 884.133 961.988 844.656C974.723 881.51 980.37 920.988 974.712 958.688C1009.18 895.666 1007.87 814.947 972.952 751.824C967.877 750.319 962.801 748.814 958.666 746.8C946.984 740.973 893.917 707.122 920.954 693.088C944.233 681.09 960.966 701.803 978.558 719.621C1026.41 712.547 1072.78 697.159 1115.07 674.259C1076.16 691.074 1035.05 699.359 993.403 698.822C1043.35 690.006 1089.99 668.396 1129.34 636.753C1091.08 651.395 1052.36 659.602 1011.82 663.329C1058.7 648.88 1102.14 624.747 1138.09 591.305C1094.08 619.995 1044.76 640.021 992.641 648.192C1046.75 628.009 1094.94 595.834 1135.64 554.35C1092.68 592.803 1039.12 621.809 981.012 636.867ZM599.433 468.579C598.145 472.922 597.663 479.867 590.575 482.49C584.426 484.605 573.011 472.556 568.794 468.156C563.557 461.877 561.353 453.348 559.15 444.819C555.253 428.7 554.686 411.992 562.309 396.927C568.348 384.542 581.156 381.252 590.396 392.655C600.36 404.273 600.364 425.539 602.301 440.289C604.29 449.542 602.224 459.168 599.433 468.579ZM723.403 702.234C715.403 713.25 703.912 720.08 693.818 732.838C684.42 737.927 673.063 741.647 669.972 728.129C667.606 714.827 682.48 701.911 690.05 692.343C697.406 683.498 710.882 664.655 724.873 668.017C743.429 671.944 730.463 691.726 723.403 702.234ZM682.896 495.693C679.671 485.286 681.522 476.384 683.078 465.819C684.848 454.531 689.008 443.163 692.953 432.52C695.61 426.22 697.327 420.428 702.456 416.436C707.369 413.168 711.128 411.132 716.499 414.3C722.595 417.683 725.147 422.378 727.78 429.459C731.219 439.142 732.993 449.119 735.492 459.311C737.992 469.503 739.041 479.265 735.31 489.185C731.794 498.38 726.184 509.318 718.748 515.775C714.774 518.535 709.78 519.416 704.141 522.47C694.339 515.625 685.905 506.823 682.896 495.693ZM806.112 721.249C807.08 728.624 800.235 738.407 796.853 744.492C793.47 750.577 791.162 753.043 786.759 757.25C783 759.286 780.906 761.027 779.293 755.824C776.741 751.129 778.029 746.786 779.318 742.442C781.331 738.314 782.834 733.247 784.847 729.118C787.585 725.205 790.833 722.23 794.082 719.256C798.485 715.049 804.123 711.995 806.112 721.249ZM822.374 530.755C818.429 541.399 817.007 548.853 803.984 552.866C797.325 554.042 793.161 544.144 793.214 538.646C793.992 533.364 795.709 527.573 797.212 522.505C799.788 513.819 802.149 505.856 805.45 497.384C806.953 492.317 809.1 485.078 812.053 480.44C817.314 473.338 825.075 476.427 827.494 484.232C832.249 497.456 826.963 517.94 822.374 530.755ZM903.499 552.451C904.682 559.102 902.617 568.728 899.959 575.028C897.732 579.88 891.745 586.768 888.496 589.742C876.814 583.915 881.752 567.265 885.993 558.285C888.006 554.156 890.153 546.917 894.851 544.373C899.04 540.89 902.612 547.462 903.499 552.451Z" fill="black"/>
<path d="M59.2104 574.569C106.85 589.484 156.903 590.939 206.121 581.909C159.24 596.358 110.37 601.554 61.9001 597.419C83.7855 600.759 104.65 602.221 126.965 604.113C101.053 609.03 75.2753 610.836 49.4163 610.255C46.0057 608.456 43.5348 606.149 41.0639 603.841C31.3951 593.885 27.794 579.429 22.6092 567.653C11.7291 543.162 5.84347 517.79 4.95217 491.536C24.1804 501.176 45.4217 506.687 66.5821 509.812C93.2471 512.995 120.986 512.557 148.214 511.181C113.2 522.85 76.7897 528.591 40.5652 525.724C82.9669 534.361 126.924 532.433 169.107 520.528C132.643 531.766 96.0179 538.231 57.8613 541.879C101.847 547.835 145.589 546.631 188.363 538.052C153.35 549.72 117.45 556.4 80.9579 559.754C123.493 565.28 165.785 563.646 208.345 555.791C158.778 568.656 109.264 576.024 59.2104 574.569Z" fill="black"/>
<path d="M146.983 672.267C201.52 671.902 256.244 662.928 307.528 644.272C285.7 656.7 263.79 666.741 239.114 672.812C279.15 668.146 318.084 659.215 356.857 645.511C322.463 668.39 283.262 683.541 242.367 691.103C287.049 689.39 331.059 681.965 373.885 667.888C329.851 688.695 283.695 703.359 235.335 709.494C283.723 711.243 331.869 705.832 379.046 693.045C328.701 711.193 277.98 725.291 225.861 733.462C256.285 734.609 285.392 732.215 315.654 728.588C257.63 746.033 196.3 750.685 136.659 741.661C160.772 740.149 184.589 736.974 208.03 729.749C185.796 730.244 164.421 727.843 143.18 722.331C165.333 719.45 186.035 716.138 208.403 712.533C166.54 712.72 126.394 707.115 86.0869 696.737C124.782 701.911 162.886 703.76 202.063 701.99C176.419 700.686 151.929 698.148 127.144 693.948C153.594 697.855 179.668 697.711 205.284 691.132C183.265 690.902 165.272 682.416 146.983 672.267Z" fill="black"/>
<path d="M396.299 898.203C367.758 917.304 338.116 932.14 305.493 943.73C337.338 937.422 367.143 927.359 396.866 914.91C360.593 938.806 320.452 954.466 278.617 962.537C312.719 959.261 345.29 953.169 377.699 942.303C347.842 957.864 317.394 970.098 284.098 975.976C303.727 976.284 322.765 973.266 341.211 966.923C315.032 978.061 288.772 986.813 262.217 993.901C247.553 984.827 233.668 970.471 223.703 958.853C210.462 942.325 202.267 919.418 198.209 898.526C197.026 891.874 194.741 880.958 195.142 871.626C263.775 863.628 330.715 848.039 395.022 825.368C350.721 852.396 301.827 870.974 251.158 879.575C316.595 869.053 379.695 853.113 441.102 829.583C393.581 867.469 338.914 892.211 280.217 903.944C349.923 892.326 416.406 870.3 478.938 837.653C427.363 875.912 370.978 906.445 309.705 926.865C339.886 920.852 368.751 911.298 396.299 898.203Z" fill="black"/>
<path d="M443.473 1005.13C498.998 977.488 549.715 942.124 594.98 901.206C578.632 927.073 559.088 950.417 535.113 970.084C572.273 951.177 605.431 927.144 634.801 897.264C604.815 937.2 563.953 973.911 522.042 1000.86C556.678 985.143 589.059 966.393 619.908 944.826C564.549 998.502 498.204 1038.68 424.042 1060.01C445.952 1049.96 466.115 1037.83 483.002 1020.79C458.274 1032.35 433.678 1040.81 408.144 1049.78C438.887 1039.21 467.294 1023.22 491.699 1002.1C454.672 1017.9 415.605 1029.94 376.375 1037.21C399.682 1033.09 422.288 1015.38 443.473 1005.13Z" fill="black"/>
<path d="M65.9119 243.417C94.0839 262.797 126.793 274.86 159.983 279.978C141.885 282.486 126.096 282.529 107.836 280.264C134.315 292.055 161.652 300.949 190.492 304.776C158.27 307.034 127.04 303.286 96.2917 292.592C104.591 304.504 117.294 312.209 130.641 317.742C143.988 323.275 158.918 326.128 173.124 328.766C114.88 325.669 57.9488 304.848 12.185 267.65C34.8238 279.089 58.5361 286.908 83.6174 292.771C65.5436 281.898 50.7183 268.051 39.3563 250.506C57.3491 258.992 74.4021 267.987 92.3949 276.473C83.9615 267.671 70.3717 254.978 65.9119 243.417Z" fill="black"/>
<path d="M283.568 -75.5796C350.926 -15.4385 396.135 68.8493 410.653 158.212C396.816 117.093 377.851 79.9658 354.831 43.2117C371.917 81.3563 382.424 123.063 388.367 164.203C376.328 119.68 357.416 77.0559 332.65 38.2089C350.38 74.1818 362.982 114.147 371.958 153.037C356.671 111.488 336.685 72.4831 311.275 35.8079C325.971 74.0313 335.672 113.136 341.615 154.277C328.312 100.715 305.317 50.5798 274.589 5.23924C281.414 30.1027 287.729 54.0273 294.34 79.6147C283.751 35.5212 257.321 -3.03185 221.441 -30.9988C235.727 -25.9745 249.155 -18.0546 257.965 -5.20355C250.228 -21.6741 240.397 -36.4029 225.653 -47.8635C252.347 -36.7971 275.658 -19.6457 289.653 4.98121C281.029 -16.4778 270.526 -36.919 256.478 -56.0486C274.686 -48.2864 289.726 -35.163 299.637 -18.0474C291.901 -34.5179 283.52 -48.8168 271.81 -62.5279C283.358 -53.5902 293.027 -43.6348 299.447 -30.7049C294.1 -47.2543 294.849 -60.4207 283.568 -75.5796Z" fill="black"/>
<path d="M777.531 126.037C759.287 67.86 750.092 8.4285 709.132 -42.309C735.538 9.62546 751.097 66.2187 755.217 124.145C731.225 58.7504 702.748 -4.82388 671.453 -66.8715C684.375 -38.625 691.873 -8.04916 698.645 22.3117C686.125 -15.2667 667.751 -49.0678 644.679 -80.3245C658.058 -45.6418 666.443 -10.0775 672.948 26.5046C658.467 -12.4427 640.227 -49.3545 617.503 -84.4457C627.525 -57.0594 634.727 -28.1463 640.479 0.336632C624.924 -34.9911 605.396 -67.5595 580.23 -97.0746C586.893 -76.9845 593.046 -57.8334 599.924 -38.4673C586.411 -70.0394 564.655 -97.7555 538.067 -119.816C581.457 -138.452 633.847 -131.578 679.015 -118.971C681.19 -118.326 684.091 -117.466 686.266 -116.821C748.495 -52.6873 782.428 37.7071 777.531 126.037Z" fill="black"/>
<path d="M832.878 8.56464C856.465 62.0258 873.688 118.325 884.978 176.015C886.743 143.461 883.73 111.065 876.876 78.3171C890.093 108.226 899.47 137.784 905.814 169.593C910.776 139.562 909.722 108.535 901.07 79.1915C913.185 104.836 921.89 128.682 926.407 156.011C928.602 122.009 926.018 88.165 914.169 56.299C925.398 76.9553 935.901 97.3965 942.646 119.873C935.601 74.4682 922.408 31.1775 902.341 -10.2138C902.961 0.9959 902.856 11.9906 904.201 23.4153C895.066 1.01742 883.113 -19.8539 868.126 -38.4746C871.216 -24.957 875.032 -11.2244 878.123 2.2932C868.507 -13.1596 857.951 -28.1034 848.334 -43.5562C856.61 -18.2627 863.865 5.15297 872.14 30.4465C861.127 9.06635 847.079 -10.0633 831.367 -28.899C840.768 -12.7223 845.9 4.55094 849.368 22.1181C844.317 7.23151 835.292 -4.8956 823.233 -14.7722C827.612 -5.59799 829.009 0.329382 832.878 8.56464Z" fill="black"/>
<path d="M1105.47 363.476C1106.51 330.707 1103.07 299.759 1095.06 268.244C1099.58 295.573 1098.38 323.569 1089.71 350.138C1092.33 314.688 1088.73 278.966 1079.19 244.635C1080.8 271.104 1079.52 296.713 1074.18 322.694C1069.21 288.929 1064.31 257.55 1059.34 223.785C1059.72 249.1 1056.26 274.064 1049.9 298.168C1049.52 272.853 1046.03 247.401 1039.2 222.538C1042.51 235.332 1040.95 245.896 1037.3 258.203C1035.39 230.071 1027.03 202.391 1013.76 177.979C1013.01 169.88 1013.19 161.272 1016.15 156.634C1030.09 165.493 1039.62 178.559 1055.14 184.737C1079.88 194.435 1096.96 211.314 1109.72 234.787C1111.76 238.543 1113.59 243.022 1116.35 246.993C1117.94 286.843 1114.25 325.912 1105.47 363.476Z" fill="black"/>
<path d="M1201.58 382.527C1202.01 381.079 1202.65 378.908 1202.36 377.245C1202.31 382.742 1202.98 388.455 1203.14 393.228C1204.35 407.763 1204.62 422.808 1205.83 437.343C1205.57 464.83 1204.58 492.101 1206.71 519.509C1208.59 539.757 1207.15 560.592 1207.15 581.858C1207.13 595.239 1207.1 608.621 1206.14 622.511C1184.23 632.552 1161.94 638.544 1137.7 643.167C1156.14 636.824 1173.57 628.603 1188.95 616.627C1156.92 631.542 1123.2 638.867 1087.86 640.988C1123.17 630.983 1154.1 611.803 1179.28 585.406C1163.76 600.493 1144.46 609.732 1122.3 612.613C1142.98 601.418 1160.16 586.036 1173.85 566.47C1149.15 585.922 1121.6 599.016 1091.5 607.417C1120.98 587.807 1145.52 563.581 1165.63 535.679C1153.44 550.178 1138.49 560.707 1120.04 567.05C1147.13 547.519 1168.69 520.047 1181.76 489.27C1160.68 509.797 1136.12 526.139 1110.02 539.664C1137.92 522.735 1158.53 495.771 1168.27 465.582C1149.88 487.693 1127.79 506.343 1101.39 518.205C1137 488.597 1166.63 452.495 1188.94 411.856C1194.85 402.581 1199.52 392.153 1201.58 382.527Z" fill="black"/>
<path d="M756.878 927.166C755.509 929.123 754.651 932.018 753.282 933.975C754.651 932.018 756.02 930.062 756.878 927.166Z" fill="black"/>
<path d="M818.743 910.072C813.777 918.837 810.557 929.696 807.041 938.892C801.297 952.94 796.493 966.479 791.475 980.742C780.575 990.898 771.635 1002.42 766.617 1016.69C757.868 1040.87 763.62 1069.35 748.774 1090.15C754.919 1066.77 756.284 1043.55 754.023 1019.25C754.137 1050.79 743.67 1080.76 724.422 1105.77C732.58 1078.26 736.683 1051.12 737.161 1022.91C729.218 1049.7 720.55 1076.27 708.471 1101.04C713.185 1042.58 730.441 987.056 755.671 933.896C750.572 945.772 748.883 959.448 750.523 972.535C759.783 949.291 779.623 927.61 800.43 913.304C783.892 926.514 775.491 946.862 776.22 968.342C784.325 946.331 799.896 925.747 818.743 910.072Z" fill="black"/>
<path d="M1021.89 967.167C1018.67 978.025 1014.94 987.945 1010.27 998.373C1002.86 1012.72 993.79 1027.35 982.971 1039.89C970.406 1050.34 956.391 1060.36 940.845 1067.57C959.773 1054.28 975.425 1036.08 984.98 1014.5C963.261 1037.2 938.48 1054.26 910.502 1068.81C956.816 1037.65 991.554 989.672 1006.71 935.888C1010.18 953.456 1004.82 971.553 995.528 986.913C1004.41 980.885 1012.79 973.918 1021.89 967.167Z" fill="black"/>
<path d="M1153.25 678.495C1162.27 669.357 1169.33 658.85 1173.71 646.758C1157.89 660.183 1142.29 672.883 1126.48 686.308C1128.28 682.903 1130.29 678.775 1130.86 674.216C1106.8 691.497 1081.21 705.96 1054.09 717.607C1070.23 713.73 1085.38 715.858 1101.51 711.981C1089.08 719.32 1075.84 724.058 1061.37 727.642C1078.45 723.255 1095.31 719.593 1112.82 713.758C1103.64 718.123 1095.18 722.703 1085.78 727.792C1088.39 726.989 1091.2 725.463 1094.53 724.875C1107.77 720.137 1120.71 713.737 1133.44 708.06C1142.62 703.696 1152.53 699.546 1161.93 694.457C1179.33 678.352 1194.25 659.939 1206.49 639.942C1206.84 636.108 1206.97 632.997 1207.11 629.886C1190.01 647.654 1171.88 663.544 1153.25 678.495Z" fill="black"/>
<path d="M665.205 933.057C664.16 944.561 660.94 955.42 657.72 966.278C651.089 975.338 643.734 984.182 636.592 992.303C613.075 1018.41 592.243 1046.09 569.45 1072.41C541.826 1104.39 501.235 1156.14 453.786 1153.88C431.982 1152.93 407.087 1138.46 387.563 1127.16C432.727 1118.5 476.198 1102.25 514.861 1078.27C500.927 1090.68 482.428 1102.52 465.217 1110.02C498.995 1097.2 528.045 1079.03 552.503 1052.42C541.254 1066.41 529.281 1080.19 515.561 1091.87C546.196 1071.03 572.399 1046.51 592.64 1015.5C590.359 1025.85 586.629 1035.77 579.488 1043.89C606.039 1015.53 627.219 984.01 642.518 948.381C639.245 964.737 635.677 979.43 628.779 994.711C646.391 977.882 659.786 956.652 665.205 933.057Z" fill="black"/>
<path d="M229.561 433.71C220.512 434.964 211.248 436.942 202.924 438.411C169.629 444.289 135.097 449.012 100.752 445.127C94.5225 444.855 86.8426 444.153 79.3774 442.726C67.9101 436.175 56.6575 428.9 46.774 419.669C57.7309 425.281 70.0569 428.936 81.6578 432.377C74.4072 430.226 69.2508 426.335 62.8589 421.289C83.6709 428.248 105.127 433.036 127.523 437.315C114.686 432.721 103.944 426.385 93.8459 417.877C116.189 427.653 139.606 433.81 164.095 436.347L163.8 434.684C149.38 432.771 135.308 427.023 123.76 418.085C145.941 423.088 168.041 425.704 190.141 428.32C181.011 427.187 172.31 424.607 164.253 419.855C185.28 426.091 206.736 430.879 229.561 433.71Z" fill="black"/>
<path d="M256.273 128.18C262.507 149.718 265.411 171.844 265.926 194.048C260.631 172.002 253.458 150.973 242.954 130.531C250.586 157.997 256.042 184.817 259.619 212.655C246.665 155.259 215.183 101.819 171.003 61.94C185.586 68.6271 196.409 77.3497 208.038 88.6741C185.342 61.4669 160.338 36.7253 131.87 15.6821C162.351 32.597 189.583 52.4863 215.017 75.7801C200.54 58.0983 185.849 41.1404 170.217 24.6914C189.741 35.9943 207.681 49.9777 223.527 65.7028C222.721 63.1011 220.976 61.0082 220.169 58.4065C232.309 70.6698 242.569 83.9508 250.01 98.7585C255.92 110.749 260.676 123.973 264.921 136.258C261.51 134.459 259.254 131.427 256.273 128.18Z" fill="black"/>
<path d="M543.349 -20.5919C561.885 17.9827 573.762 57.7327 581.154 99.3032C569.626 55.7187 549.855 15.9902 522.566 -19.6673C542.337 20.0612 558.564 61.1014 572.911 103.159C561.95 76.2818 547.526 53.1026 528.618 31.744C545.837 66.7779 559.727 102.4 569.858 140.057C533.078 43.3049 475.032 -45.5772 400.529 -118.863C415.808 -119.845 431.382 -119.164 444.648 -116.018C475.959 -109.883 501.527 -89.6993 520.812 -64.2911C537.33 -42.8537 550.009 -21.7674 559.009 3.74117C554.416 -4.70911 548.883 -12.6505 543.349 -20.5919Z" fill="black"/>
<path d="M730.512 122.332C755.468 173.836 771.456 228.982 776.73 285.675C779.679 259.773 780.238 233.949 779.132 208.419C790.656 230.738 795.306 254.956 795.902 279.547C796.675 252.999 794.334 226.315 787.723 200.728C796.266 219.8 803.144 239.166 807.203 260.059C801.771 219.858 797.789 180.086 792.356 139.885C794.884 157.961 793.491 173.299 789.574 191.826C785.892 174.983 781.995 158.864 777.803 141.081C778.37 157.789 778.427 173.557 777.544 189.834C772.975 168.002 766.741 146.464 759.352 126.159C763.115 145.389 764.489 164.698 762.532 184.594C756.432 159.946 745.07 142.4 730.512 122.332Z" fill="black"/>
<path d="M1005.72 117.314C1000.1 184.164 987.004 249.588 965.723 313.37C973.289 282.536 976.076 251.86 976.902 219.815C970.49 249.416 963.568 278.078 957.156 307.679C957.233 288.8 957.095 270.645 956.957 252.49C952.182 273.914 944.477 286.593 936.291 306.217C940.042 261.65 936.838 216.596 926.974 172.718C937.907 191.711 946.02 212.231 949.139 233.633C948.114 210.49 946.15 187.855 942.52 165.515C951.922 181.691 958.933 197.947 961.971 216.962C958.743 185.289 956.321 156.219 953.092 124.546C963.514 142.601 971.117 162.182 975.391 182.351C973.422 138.451 967.694 96.5866 958.126 54.371C967.585 86.3158 976.533 117.322 986.931 148.758C989.717 118.081 988.449 87.7779 981.462 58.141C988.769 76.0593 994.116 92.6087 997.879 111.839C999.917 94.3288 1000.37 79.4996 999.293 61.8537C1004.21 79.8508 1005.8 98.4357 1005.72 117.314Z" fill="black"/>
<path d="M1141.96 338.857C1138.53 350.439 1132.94 369.261 1128.78 380.628C1123.55 395.615 1115.42 409.742 1108.95 423.575C1108.52 425.022 1108.3 425.746 1107.15 426.979C1097.83 434.455 1088.01 440.991 1076.95 446.374C1089.81 437.587 1099.9 424.829 1105.86 410.057C1096.41 420.643 1085.94 429.351 1073 435.752C1087.23 425.008 1097.75 410.802 1104.86 394.798C1092.16 408.358 1077.72 419.826 1063.49 430.57C1087.46 410.903 1105.99 385.681 1117.69 356.861C1127.38 332.17 1131.27 305.758 1130.38 279.504C1133.3 288.248 1136.96 297.207 1139.89 305.951C1144.13 318.236 1145.61 326.55 1141.96 338.857Z" fill="black"/>
<path d="M914.963 678.71C921.542 675.148 927.395 671.371 933.758 668.533C938.457 665.988 944.095 662.935 949.008 659.667C953.922 656.398 958.835 653.13 963.749 649.862C968.662 646.593 973.575 643.325 978.274 640.781C983.187 637.512 988.101 634.244 993.524 631.915C1003.35 625.378 1012.96 619.565 1023.09 614.692C1028.51 612.362 1033.21 609.818 1038.63 607.488C1044.06 605.159 1049.48 602.83 1054.9 600.5C1065.24 594.902 1075.79 588.581 1084.38 580.89C1088.57 577.407 1092.97 573.2 1097.38 568.993C1101.78 564.785 1105.46 560.363 1109.14 555.941C1117.22 547.311 1124.57 538.467 1129.97 528.253C1123.85 538.252 1115.77 546.881 1107.18 554.572C1102.77 558.779 1099.09 563.201 1094.91 566.685C1090.5 570.892 1086.31 574.375 1081.4 577.644C1072.3 584.395 1061.96 589.993 1051.84 594.867C1046.42 597.196 1041.21 598.802 1035.78 601.131C1029.85 602.521 1024.43 604.851 1019 607.18C1008.15 611.839 997.818 617.437 987.481 623.034C982.782 625.579 977.144 628.632 972.445 631.176C967.021 633.506 962.108 636.774 957.195 640.042C952.281 643.311 946.858 645.64 942.159 648.185C937.46 650.729 932.036 653.058 926.613 655.388C916.49 660.261 906.153 665.859 896.675 668.561L886.443 663.164C888.671 658.312 890.899 653.46 894.066 648.099C895.865 644.694 897.663 641.29 899.972 638.824C902.495 635.635 904.508 631.506 906.307 628.102C909.904 621.293 913.715 613.76 917.098 607.675C920.48 601.59 925.527 595.211 929.849 588.617L956.291 549.992C965.445 537.743 975.324 525.709 985.929 513.89C990.976 507.511 995.808 501.856 1000.85 495.477C1005.9 489.098 1010.22 482.504 1014.55 475.911C1023.91 462.938 1031.83 449.535 1039.24 435.193C1042.84 428.384 1045.93 420.636 1048.8 413.612C1051.67 406.588 1054.03 398.625 1057.63 391.816C1064.31 377.259 1070.78 363.426 1075.29 348.224C1070.05 363.211 1062.86 376.829 1055.45 391.171C1051.86 397.98 1048.77 405.728 1045.9 412.752C1043.03 419.776 1039.43 426.585 1035.83 433.394C1028.64 447.012 1019.27 459.985 1010.11 472.234C1005.07 478.613 1000.96 484.483 995.913 490.861C991.081 496.517 986.034 502.895 980.476 508.335C969.872 520.154 958.757 531.034 948.663 543.792L920.261 581.048C915.214 587.427 910.382 593.082 905.845 600.4C901.523 606.994 897.711 614.527 893.604 620.397C891.806 623.801 889.497 626.267 886.973 629.456C884.45 632.646 882.651 636.05 880.128 639.24C877.175 643.877 874.008 649.238 871.78 654.09L869.605 653.445L859.883 648.987L837.03 638.272L837.244 637.548C837.459 636.824 837.674 636.1 837.888 635.377C838.103 634.653 838.318 633.929 838.532 633.205L842.611 619.451C845.402 610.04 848.193 600.629 850.259 591.004C851.761 585.936 852.539 580.654 853.102 576.096C853.665 571.537 854.443 566.255 855.731 561.911C857.797 552.286 859.862 542.66 861.928 533.034C863.994 523.408 866.06 513.783 867.4 503.942C868.741 494.101 870.082 484.26 871.208 475.144C871.771 470.585 872.548 465.303 873.111 460.744C873.674 456.186 874.962 451.843 876.465 446.775C879.256 437.365 882.772 428.169 885.563 418.758C888.353 409.348 891.144 399.937 893.935 390.526C896.726 381.115 898.791 371.49 901.582 362.079C904.373 352.668 907.164 343.258 909.23 333.632C910.732 328.565 911.295 324.006 912.073 318.724C912.636 314.165 913.414 308.883 913.977 304.325C914.54 299.766 914.592 294.269 914.43 289.495C914.268 284.722 914.106 279.949 913.219 274.96C913.057 270.187 912.17 265.198 912.008 260.425C911.846 255.651 912.623 250.369 912.461 245.595C912.137 236.049 912.028 225.778 913.154 216.661L918.626 187.569L917.075 219.399C915.009 229.025 915.118 239.295 915.443 248.842C915.605 253.616 915.042 258.174 914.989 263.671C915.151 268.445 915.313 273.218 915.26 278.716C916.31 288.478 915.909 297.809 914.568 307.65C914.005 312.209 913.227 317.491 912.664 322.049C912.101 326.608 910.599 331.675 910.036 336.234C907.97 345.859 904.454 355.055 901.663 364.466C898.872 373.876 896.082 383.287 893.291 392.698C890.5 402.109 887.709 411.519 884.193 420.715C880.678 429.911 877.162 439.106 873.646 448.302C872.143 453.369 870.855 457.713 869.352 462.78C867.85 467.847 867.287 472.406 866.509 477.688C865.168 487.529 863.828 497.369 861.976 506.271C859.911 515.897 858.06 524.799 855.994 534.425C853.203 543.835 851.137 553.461 849.072 563.087C847.569 568.154 847.006 572.713 846.228 577.995C845.665 582.553 844.377 586.897 842.874 591.964C840.084 601.375 837.508 610.062 833.992 619.257L829.188 632.796C828.973 633.52 828.973 633.52 828.758 634.244L828.114 636.416C815.493 631.098 803.811 625.271 791.404 619.229C778.997 613.187 766.375 607.868 753.753 602.55C750.128 601.475 747.443 599.891 743.817 598.816C752.485 572.247 753.474 544.975 757.362 518.563C757.844 511.618 759.051 504.888 760.258 498.158C761.465 491.428 761.947 484.483 763.154 477.753C764.843 464.077 766.532 450.402 767.496 436.512C768.46 422.621 769.424 408.731 770.388 394.841C771.352 380.951 772.316 367.06 772.555 352.955C773.757 324.959 772.785 296.319 765.879 269.069C758.758 242.542 753.516 214.998 743.065 189.06C738.31 175.836 733.34 163.336 728.584 150.112C726.462 143.97 723.829 136.889 721.706 130.746C719.798 123.88 717.676 117.738 715.768 110.871C699.136 57.8975 672.596 9.07362 657.843 -44.9179C671.146 8.64358 697.256 58.9152 712.224 112.183C714.131 119.049 715.314 125.7 717.437 131.843C719.345 138.709 721.467 144.852 724.1 151.933C728.856 165.157 733.611 178.38 737.641 191.389C746.427 217.621 751.884 244.442 758.065 271.477C764.461 297.788 764.198 325.275 762.995 353.27C762.031 367.161 761.067 381.051 760.103 394.941C759.139 408.832 758.175 422.722 756.486 436.397C754.797 450.072 753.108 463.748 750.694 477.208C749.487 483.938 748.28 490.668 747.073 497.398C745.866 504.128 744.659 510.859 743.237 518.313C739.349 544.724 737.851 571.057 729.316 594.516C724.455 592.287 719.38 590.781 715.03 589.491C702.193 584.897 689.142 581.027 676.306 576.432C664.195 572.053 652.083 567.674 641.556 560.614C641.179 556.565 642.171 550.558 644.103 544.043C644.962 541.148 646.036 537.528 646.894 534.633C647.968 531.013 648.101 527.903 649.175 524.283C651.589 510.823 652.338 497.656 652.362 484.275C652.386 470.894 652.921 458.451 652.22 444.855C651.762 438.418 651.519 431.258 650.337 424.607C649.154 417.956 647.246 411.089 645.848 405.162C639.238 379.575 632.412 354.711 625.801 329.124C619.191 303.536 613.305 278.164 605.755 253.085C602.449 240.292 598.204 228.007 593.234 215.507C588.264 203.007 583.079 191.231 577.169 179.24C566.074 155.474 554.04 132.216 541.066 109.467C534.216 97.9844 528.091 86.7174 521.242 75.2353C518.18 69.6018 514.392 63.7533 510.39 58.6286C506.603 52.7801 502.386 48.3793 498.599 42.5308C491.535 31.7726 484.685 20.2906 477.621 9.53242C473.833 3.68388 470.556 -1.22574 466.769 -7.07428C463.707 -12.7078 460.644 -18.3413 459.462 -24.9926C460.644 -18.3413 463.707 -12.7078 466.554 -6.35039C469.617 -0.716863 473.404 5.13168 476.681 10.0413C483.531 21.5234 489.655 32.7904 496.719 43.5486C500.507 49.3971 504.509 54.5218 507.786 59.4314C511.573 65.2799 514.85 70.1895 517.912 75.823C524.037 87.0901 530.887 98.5722 537.011 109.839C549.046 133.097 560.355 156.14 571.235 180.631C576.42 192.407 581.39 204.907 585.85 216.468C590.095 228.752 594.34 241.037 597.645 253.831C604.471 278.694 609.417 304.576 615.302 329.948C621.188 355.32 627.799 380.908 633.684 406.28C634.867 412.931 636.265 418.859 637.662 424.786C638.12 431.222 638.792 436.935 639.25 443.371C639.441 456.028 638.691 469.195 637.942 482.361C637.193 495.528 636.658 507.97 633.734 520.492C632.875 523.387 632.741 526.498 631.883 529.393C631.024 532.289 630.165 535.185 629.092 538.804C628.233 541.7 627.16 545.319 626.086 548.939C625.872 549.663 625.657 550.386 625.442 551.11C618.621 547.512 611.29 542.975 604.468 539.377C580.594 526.784 555.351 516.148 532.202 503.77C526.105 500.387 520.734 497.219 515.363 494.051C509.992 490.883 504.836 486.991 498.229 482.669C486.251 475.18 474.569 469.353 463.102 462.802C460.417 461.218 457.946 458.91 455.26 457.326C457.46 444.59 456.115 433.165 454.555 422.464C452.996 411.763 450.711 400.847 449.152 390.146C446.247 368.021 442.403 346.404 436.894 325.081C426.601 282.651 411.314 241.102 393.933 201.294C384.879 181.283 375.826 161.272 366.558 141.985C356.565 122.482 345.633 103.489 333.546 85.7284C327.502 76.848 321.459 67.9677 314.69 58.8724C308.646 49.9921 300.938 41.4056 293.74 33.7581C278.619 18.248 261.404 4.47953 249.532 -14.005C261.404 4.47953 277.465 19.4807 292.586 34.9908C299.784 42.6384 306.767 51.0098 312.811 59.8902C318.854 68.7705 324.683 78.3747 330.726 87.255C341.874 105.525 352.806 124.518 361.86 144.529C370.913 164.54 379.241 184.337 387.569 204.133C404.011 244.449 417.123 285.353 426.476 328.292C431.26 349.4 434.379 370.802 436.773 391.988C438.118 403.413 439.677 414.114 440.512 424.6C441.265 432.699 442.019 440.798 441.322 448.467C437.401 445.729 433.48 442.991 429.344 440.977C417.152 434.211 404.745 428.169 392.849 423.066C380.442 417.024 368.545 411.921 356.138 405.879C344.456 400.052 333.203 392.777 322.165 384.778C311.128 376.779 299.875 369.505 286.528 363.971C285.803 363.756 285.078 363.541 284.353 363.326L285.078 363.541C285.532 348.712 283.595 333.962 279.994 319.505C276.393 305.049 269.033 292.628 263.338 279.913C260.49 273.556 258.368 267.413 256.245 261.271C254.337 254.404 252.43 247.538 251.247 240.887C248.156 227.369 244.34 213.637 238.86 200.198C237.543 196.657 236.012 193.84 234.696 190.3L230.317 181.126C227.469 174.768 224.622 168.411 221.774 162.053C216.079 149.339 209.444 137.133 201.144 125.22C193.57 113.523 184.115 102.844 174.661 92.1647C169.934 86.8251 165.207 81.4854 159.326 77.3785C154.384 72.7628 147.133 70.6125 142.406 65.2729C147.133 70.6125 154.169 73.4866 159.111 78.1024C164.053 82.7182 168.994 87.3339 173.507 93.3975C182.021 104.586 190.75 115.05 198.11 127.471C204.96 138.953 211.38 151.883 216.35 164.383C219.198 170.74 222.046 177.098 223.953 183.964L228.118 193.862C229.434 197.403 230.965 200.219 231.557 203.545C235.587 216.554 238.678 230.071 241.768 243.589C242.951 250.24 244.859 257.107 245.827 264.482C247.735 271.348 249.643 278.214 252.276 285.296C257.756 298.734 263.666 310.725 266.247 323.304C269.042 335.159 270.172 347.307 269.637 359.75C261.662 357.385 254.411 355.234 247.804 350.913C224.87 337.811 205.532 317.9 182.087 303.859C158.642 289.818 134.124 279.397 113.203 262.167C134.124 279.397 158.938 291.481 181.443 306.031C203.949 320.58 222.346 341 245.791 355.041C251.887 358.424 257.984 361.807 264.509 363.742C271.035 365.677 277.56 367.612 283.146 370.056C286.046 370.917 288.007 372.286 290.692 373.87C289.538 375.102 287.658 376.12 285.994 376.414C283.174 377.941 278.905 379.037 275.576 379.625L263.707 382.406C259.438 383.502 255.894 384.814 251.624 385.911C235.997 390.727 220.88 396.482 205.172 398.912C173.541 404.496 140.727 403.428 108.128 401.636C140.808 405.814 173.703 409.269 206.14 406.287C223.084 405.012 238.711 400.195 254.849 396.318C259.118 395.221 262.448 394.633 266.717 393.537L279.096 391.695C283.15 391.322 287.419 390.225 291.903 388.405C296.173 387.308 300.871 384.764 304.549 380.342C309.195 383.295 312.902 386.756 317.548 389.709C328.586 397.708 339.624 405.707 351.816 412.473C364.008 419.239 375.69 425.066 388.097 431.108C399.779 436.935 412.186 442.977 423.653 449.528C429.025 452.696 434.906 456.803 440.062 460.695C440.788 460.91 441.298 461.848 441.298 461.848C435.445 465.626 430.317 469.618 424.464 473.395C421.43 475.646 417.671 477.681 414.852 479.208C411.093 481.243 407.548 482.555 404.515 484.805C389.908 491.5 374.577 497.979 359.46 503.734C344.129 510.214 330.033 517.847 314.62 521.939C299.208 526.032 282.855 530.633 266.933 533.787C259.334 535.471 250.795 537.665 243.411 538.625C235.812 540.309 227.703 541.055 219.593 541.8C211.484 542.546 203.375 543.291 195.051 544.76C186.727 546.23 179.128 547.914 170.804 549.383C166.535 550.48 162.48 550.852 159.15 551.44C155.096 551.813 151.041 552.186 146.987 552.558L110.495 555.913C106.44 556.285 102.6 555.934 98.5455 556.307C90.6509 556.328 81.8976 559.245 74.1367 556.156C77.5473 557.955 82.327 557.798 86.3816 557.425C90.4363 557.052 94.4909 556.68 98.3309 557.031C102.171 557.382 106.951 557.224 110.79 557.575L122.74 557.181L147.363 556.608C151.418 556.235 155.258 556.586 159.313 556.214C163.367 555.841 167.422 555.468 171.691 554.372C180.015 552.902 187.614 551.218 195.723 550.473C203.833 549.727 211.942 548.982 219.836 548.96C227.946 548.215 235.84 548.193 244.889 546.939C253.213 545.47 261.537 544 268.921 543.04C284.844 539.886 300.767 536.733 316.905 532.855C325.229 531.386 333.257 528.254 341.285 525.122C349.313 521.99 356.617 518.642 363.705 516.019C378.822 510.264 394.664 504.723 409.995 498.244C413.754 496.209 417.298 494.897 421.782 493.077C425.541 491.041 429.3 489.005 433.059 486.97C439.852 482.684 446.86 477.674 453.652 473.388L452.98 467.675C454.215 468.829 456.176 470.198 458.136 471.567C469.899 479.781 481.581 485.608 492.834 492.883C497.99 496.775 503.872 500.882 509.243 504.05C515.124 508.157 521.22 511.539 526.592 514.707C538.784 521.473 550.466 527.3 562.873 533.343C570.419 537.156 577.965 540.969 584.787 544.567C580.384 548.774 575.256 552.766 570.128 556.758C568.033 558.5 565.939 560.242 563.845 561.983C561.751 563.725 559.657 565.466 557.563 567.208C553.374 570.691 549.911 574.39 545.938 577.149C530.124 590.574 513.29 602.12 495.006 613.237C458.866 634.022 420.175 650.113 379.657 661.724C359.036 667.422 338.629 672.396 318.222 677.37C308.019 679.857 297.601 683.068 287.397 685.555C282.403 686.437 277.408 687.318 271.689 687.985C269.299 688.064 266.695 688.867 263.58 688.73C260.975 689.533 258.585 689.612 255.981 690.415C235.064 694.45 214.657 699.424 193.739 703.459C183.751 705.222 173.037 706.771 162.538 707.595C157.543 708.476 152.039 708.419 147.044 709.301C142.265 709.458 136.545 710.125 131.47 708.62C136.33 710.849 142.05 710.182 146.83 710.025C152.334 710.082 157.329 709.2 162.833 709.258C173.333 708.433 183.832 707.609 194.546 706.061C215.248 702.75 236.165 698.714 257.083 694.679C262.077 693.798 267.071 692.916 272.791 692.25C277.785 691.368 283.29 691.425 289.009 690.759C299.938 688.487 309.416 685.785 320.345 683.513C340.751 678.538 361.669 674.503 382.076 669.529C423.614 659.796 463.756 644.135 501.345 623.78C520.14 613.602 537.914 601.547 555.177 588.552C559.365 585.069 563.554 581.586 567.742 578.102C569.836 576.361 571.93 574.619 573.81 573.601C575.904 571.86 577.783 570.842 579.877 569.1C585.945 564.599 592.953 559.589 599.664 552.916C611.132 559.467 622.599 566.018 633.852 573.293C645.615 581.507 658.961 587.04 671.798 591.634C681.734 595.369 691.67 599.103 701.606 602.837C697.928 607.259 693.525 611.466 689.122 615.674L667.403 638.373L644.959 660.856C641.496 664.555 638.032 668.253 633.629 672.46C630.166 676.159 626.488 680.581 623.025 684.279C616.609 692.615 610.193 700.951 603.266 708.347C601.897 710.304 599.803 712.046 598.434 714.002C596.34 715.744 594.971 717.701 592.877 719.442C589.414 723.141 585.736 727.563 582.272 731.261C575.131 739.382 568.93 746.994 561.278 754.175C553.627 761.357 545.975 768.539 538.324 775.72C522.51 789.145 506.697 802.569 488.923 814.625C480.036 820.652 471.364 825.956 462.692 831.26L435.735 847.68C417.451 858.797 399.381 869.19 380.291 877.704C361.2 886.219 341.089 892.856 320.468 898.554C340.874 893.58 360.771 887.667 380.586 879.367C400.187 871.791 418.982 861.614 437.051 851.221L464.518 835.739C473.916 830.651 482.588 825.347 491.475 819.319C509.034 807.988 526.298 794.993 542.111 781.569C550.488 774.602 558.139 767.42 565.791 760.239C573.442 753.057 581.308 745.151 588.235 737.755C591.698 734.056 595.161 730.358 598.625 726.66C600.719 724.918 602.088 722.961 604.182 721.22C606.276 719.478 608.37 717.736 609.954 715.056C617.095 706.935 623.511 698.6 630.438 691.203C633.901 687.505 637.364 683.806 640.827 680.108C644.291 676.41 648.479 672.926 651.942 669.228L697.851 626.138C703.409 620.698 708.966 615.258 714.738 609.094C724.674 612.828 735.121 617.501 744.842 621.959C756.739 627.062 769.146 633.105 780.828 638.932C788.374 642.745 795.92 646.558 803.467 650.371C803.037 651.818 802.097 652.327 801.883 653.051C799.655 657.903 797.427 662.756 794.689 666.669C793.32 668.626 791.951 670.583 790.582 672.539L786.26 679.133C783.522 683.047 780.569 687.684 777.106 691.382L758.582 716.604C752.166 724.94 746.261 734.214 741.295 742.98L733.376 756.383C730.423 761.02 728.195 765.872 725.457 769.786C720.276 779.275 716.035 788.256 711.795 797.236C709.567 802.089 706.829 806.002 704.601 810.854C701.863 814.768 698.91 819.405 696.172 823.318C690.481 831.869 684.065 840.205 677.863 847.816C665.246 863.764 651.688 880.22 639.071 896.167L629.192 908.201C625.728 911.9 622.265 915.598 618.802 919.296C611.875 926.693 604.224 933.875 596.572 941.056C581.484 954.696 564.435 966.966 547.386 979.237C539.224 985.479 530.552 990.783 521.155 995.872C512.482 1001.18 503.085 1006.26 494.413 1011.57C503.085 1006.26 512.482 1001.18 521.665 996.811C531.062 991.722 539.735 986.418 548.407 981.114C565.241 969.568 582.29 957.297 598.829 944.088C606.99 937.845 614.642 930.664 621.568 923.267C625.032 919.568 628.495 915.87 632.173 911.448L642.777 899.629C656.12 883.897 669.973 869.103 683.53 852.647C689.946 844.311 696.362 835.976 702.563 828.364C705.302 824.451 708.979 820.029 711.932 815.391C714.885 810.754 717.838 806.117 719.851 801.988C725.032 792.499 729.273 783.518 734.239 774.753C739.205 765.987 744.896 757.436 749.862 748.671C755.553 740.12 761.244 731.569 766.72 723.743L785.754 699.46C789.217 695.761 792.17 691.124 795.633 687.426L800.68 681.047C802.049 679.09 803.418 677.133 805.002 674.453C807.955 669.816 810.183 664.963 812.41 660.111C812.84 658.663 813.779 658.154 814.209 656.707C814.209 656.707 814.209 656.707 814.934 656.922L851.43 674.833C852.155 675.048 852.155 675.048 852.88 675.263C851.511 677.219 849.631 678.237 848.262 680.194C845.953 682.659 844.584 684.616 843.001 687.297C841.417 689.977 839.833 692.658 838.974 695.553C836.532 701.13 835.029 706.197 833.016 710.325C830.788 715.178 828.56 720.03 826.118 725.606C816.992 745.739 810.041 766.517 803.091 787.295C800.085 797.43 796.14 808.073 793.86 818.423L785.354 849.766C782.348 859.9 779.128 870.759 775.398 880.679C771.667 890.598 767.936 900.518 763.266 910.946C758.811 920.651 754.355 930.355 749.685 940.784C745.229 950.488 741.284 961.132 737.553 971.051C733.823 980.971 729.878 991.614 726.147 1001.53C722.417 1011.45 717.746 1021.88 713.291 1031.59L706.607 1046.14C704.38 1051 702.152 1055.85 699.924 1060.7C695.468 1070.41 689.563 1079.68 682.932 1088.74C670.61 1106.35 655.603 1122.38 640.595 1138.4C655.603 1122.38 671.121 1107.29 684.167 1089.89C690.798 1080.83 696.489 1072.28 701.884 1062.07C704.112 1057.22 706.34 1052.36 708.568 1047.51L715.251 1032.96C719.707 1023.25 725.102 1013.04 728.833 1003.12C733.288 993.414 737.233 982.77 740.964 972.85C744.695 962.931 749.365 952.502 753.82 942.798C758.276 933.093 763.457 923.604 768.127 913.175C772.582 903.471 777.253 893.042 780.983 883.123C784.928 872.479 788.659 862.56 791.879 851.701L801.835 820.788C804.841 810.654 808.786 800.01 812.516 790.091C819.467 769.312 826.928 749.473 836.565 730.279C838.792 725.427 841.02 720.575 843.973 715.937C847.141 710.576 848.643 705.509 850.871 700.657C851.515 698.485 852.884 696.528 854.253 694.572C855.622 692.615 856.991 690.658 859.086 688.917C860.455 686.96 862.549 685.218 864.643 683.476C865.583 682.968 866.737 681.735 867.677 681.226C873.048 684.394 879.359 687.053 884.73 690.221C884.515 690.945 884.811 692.608 884.596 693.332C884.167 694.779 884.248 697.166 883.604 699.338C883.9 701.001 883.255 703.172 883.551 704.835C883.794 711.995 884.252 718.432 885.22 725.807C887.371 739.833 891.402 752.842 895.432 765.851C902.768 791.653 907.714 817.534 913.895 844.569C920.291 870.881 922.633 897.565 923.309 924.543C923.261 951.305 916.257 977.581 912.369 1003.99C917.922 977.287 926.376 951.442 927.364 924.17C928.352 896.898 926.95 869.705 921.494 842.885C916.763 816.28 912.971 789.166 906.575 762.855C903.27 750.061 900.179 736.543 899.049 724.395C898.591 717.959 898.348 710.798 898.401 705.301C898.105 703.638 898.534 702.19 898.964 700.743C899.178 700.019 899.393 699.295 898.883 698.356L959.549 730.523L1243.73 884.104L1256.83 861.212L914.963 678.71Z" fill="black"/>
</svg>
